<?xml version="1.0" encoding="UTF-8"?>
<svg id="Layer_1" data-name="Layer 1" xmlns="http://www.w3.org/2000/svg" viewBox="0 0 236.93 120.01">
  <defs>
    <style>
      .cls-1 {
        fill: #fff;
      }
    </style>
  </defs>
  <path class="cls-1" d="M4.9,52.09c-2.66-3.74-3.74-5.47-4.46-12.31-.14-1.08-.43-3.17-.43-5.98,0-3.67,1.3-10.58,1.3-10.58.43-1.73,1.01-2.95,1.8-4.61.72-1.44,1.37-2.59,1.8-3.17.86-1.15,3.82-4.18,7.06-5.69,2.02-1.01,4.25-1.44,6.26-1.8,2.88-.43,5.4-.5,6.34-.5h.72c.29,0,6.12.14,6.48.29.65.43,1.37.94,1.37,2.23,0,.72-.07,1.22-.07,1.94v2.52c0,2.3.07,4.68-.29,5.33-.43.58-1.01.94-1.15,1.08-.14.14-.79.43-1.37.43-1.01,0-1.66-.65-2.66-.94-.58-.14-3.67-.29-4.32-.29-4.03,0-5.98,1.22-7.42,3.53-.36.5-.79,1.51-.94,2.02-.07.36-.14,1.3-.29,2.3-.36,2.02-.79,2.59-.79,6.05,0,1.01.07,1.8.07,2.88v.72c0,1.01.14,1.3.22,1.87.07.29,2.02,5.11,2.23,5.4.22.29.43.86,1.15,1.44.65.5,1.8,1.08,3.24,1.08,1.73,0,2.66-.58,2.66-1.73,0-.72-.14-1.3-.14-2.02,0-1.01.14-1.73.14-2.74,0-1.94-1.8-2.45-2.38-2.45-.5,0-.79.22-1.3.22-.65,0-1.73-.72-1.73-2.09,0-1.8.07-3.1.14-4.9,0-.94,0-2.38.07-2.45,0-.07,0-.72.29-1.15.5-.86,1.37-1.44,2.88-1.44s2.38.14,3.74.14c1.73,0,2.88,0,4.61-.07.65-.07,1.08-.14,1.73-.14,3.6,0,3.38,2.81,3.38,3.82,0,1.37-.07,2.3-.07,3.74,0,1.51.07,2.59,0,4.18,0,1.44-.14,2.45-.14,3.89,0,1.94.14,3.31.14,5.33s-.07,3.46-.07,5.54v2.09c0,.07,0,1.44-.5,2.16-1.51,2.16-6.05,2.52-10.94,2.52s-6.34.14-11.02-1.66c-1.15-.43-2.81-1.15-3.96-2.09-1.58-1.3-2.3-2.45-3.38-3.96ZM70.35,58.93c-1.22,0-2.02-.14-3.24-.14-1.44,0-2.38,0-3.74.07-.79,0-1.37.14-2.16.14-2.3,0-2.52-1.8-3.24-3.46-.72-1.73-1.51-2.81-2.23-4.46-.5-1.15-.72-1.94-1.3-3.1-.58-1.15-1.01-2.16-1.73-2.16-1.08,0-.94,1.44-.94,1.8,0,1.44.07,2.45.07,3.82,0,1.08-.07,1.8-.07,2.88,0,1.01.14,1.73.14,2.81,0,1.58-.94,1.94-1.73,1.94-1.51,0-2.59-.22-4.18-.22-1.8,0-3.17.29-4.97.29-1.58,0-2.38-1.08-2.38-2.52,0-1.08.14-1.8.22-2.81.07-1.8.14-3.1.14-4.97-.07-3.6-.29-6.12-.29-9.79s.22-6.34.22-10.01c0-2.38-.14-4.03-.14-6.41,0-2.52.14-4.32.14-6.84,0-1.51-.22-2.59-.14-4.1,0-1.44.5-3.67,3.82-3.67,1.51,0,2.52.14,4.03.14,3.6.07,6.19-.22,9.86-.22,4.18,0,9.86.72,13.18,6.34.22.43.5,1.08.65,1.51.22.58.65,1.3,1.01,2.52.5,1.73.72,6.55.72,8.21,0,1.08.22,7.49-3.82,12.39-.43.58-.86.94-1.3,1.44-.36.43-.72.5-1.08.94-.07.07-.29.43-.29.79,0,1.01,2.74,5.76,3.24,6.84.43,1.01.72,1.73,1.22,2.74.79,1.66,1.58,2.74,2.23,4.39.07.29.29.72.29,1.37,0,1.58-1.8,1.51-1.94,1.51h-.29ZM58.32,25.16c0-1.87-.86-5.18-3.82-5.18h-.29c-.5.07-1.01.22-1.37.5-.79.65-1.01,1.58-1.01,1.73-.07.29-.29,6.05-.29,6.26,0,1.8,1.01,3.53,3.17,3.53,1.01,0,1.73-.36,2.16-.72,1.22-1.08,1.44-3.31,1.44-6.12ZM74.09,56.98c0-.58.29-1.94.58-3.46.29-1.87.36-3.1.72-4.97.29-1.66.58-2.81.86-4.46.43-2.38.5-4.03.94-6.41.36-2.38.79-3.96,1.08-6.34.22-1.66.29-2.88.58-4.61.36-1.94.79-3.38,1.15-5.33.58-3.02.58-5.18,1.3-8.14.43-1.94,1.01-3.74,1.66-4.39.72-.58,1.58-.79,3.17-.79,2.45,0,4.18.29,6.62.29,1.8,0,3.67-.07,5.47-.07h.29c1.87,0,2.45.29,3.17,1.51.14.14.29.72.36.86,0,.07,1.3,6.7,1.3,6.77.36,2.3.5,3.96.86,6.26.5,2.81.86,4.75,1.44,7.56.43,2.23.86,3.89,1.15,6.12.43,2.95.43,5.04.86,7.99.72,4.39,2.02,9.86,2.02,10.87,0,.07-.22,2.88-2.38,2.88-1.73,0-2.95-.22-4.68-.22-1.44,0-2.45.14-3.89.14-2.59,0-2.23-1.94-2.38-2.66-.07-.65-.22-4.68-.86-5.33-.36-.36-.14-.14-.58-.43-.14-.07-2.88-.14-4.54-.14-2.74,0-2.52.72-2.81,2.3-.07.58-.22,4.68-.65,5.33-.5.65-.94.94-2.09.94-1.37,0-2.3-.07-3.67-.07-1.44,0-2.88.07-4.32.07-1.3,0-2.74-.14-2.74-2.09ZM89.21,35.81c0,2.23,1.08,2.45,2.23,2.45.94,0,2.74,0,2.74-2.59,0-3.82-.94-8.14-1.08-9.15-.14-1.15-.29-2.66-.43-2.88-.14-.5-.5-.79-.72-.79s-.5.36-.58.72c-.14.36-.58,2.66-.65,3.02-.22.86-.43,1.51-.58,2.38-.07.58-.94,6.34-.94,6.84ZM140.04,58.78c1.3,0,2.16.14,3.46.14.94,0,2.52-.07,2.52-1.73,0-.65-.22-1.15-.22-1.8-.22-1.51-.14-2.66-.14-4.18,0-3.1.29-5.26.29-8.28,0-3.38-.29-5.69-.29-9.07s.22-5.76.22-9.14c0-3.17-.14-5.33-.14-8.5,0-2.23.29-3.74.29-5.9,0-1.3-.65-2.02-1.94-2.02-.86,0-1.44.07-2.3.07h-2.74c-1.01,0-1.73-.14-2.74-.14-.86,0-1.58.36-1.87.58-.22.14-.43.29-.72.65-.36.65-.36,2.88-.36,3.46,0,3.17.36,5.4.36,8.5,0,1.15-.14,1.94-.14,3.02,0,1.15.22,1.94.22,3.02,0,1.01,0,2.59-.36,2.66-.36.07-1.01-2.23-1.44-3.6-.36-1.01-.58-1.73-1.01-2.66-.22-.58-.5-.94-.72-1.51-.36-.79-.5-1.37-.79-2.09-.29-.72-.65-1.22-1.01-1.94-.43-1.01-.72-1.66-1.15-2.67-.36-.79-2.23-5.98-3.17-6.77-.36-.36-.72-.65-1.51-.65-1.58,0-2.66.22-4.18.22-.94,0-1.66,0-2.59-.07-.65,0-1.08-.14-1.66-.14h-.36c-1.66.29-1.66,1.73-1.66,2.09,0,2.81.29,4.68.22,7.49-.07,2.67-.14,4.54-.14,7.2v3.74c0,1.3.22,2.23.22,3.6s-.14,2.3-.22,3.67c-.07,1.73-.07,2.95-.07,4.68,0,1.94.07,3.31.07,5.33,0,.86.07,1.44.07,2.38.07,3.02-.43,5.18-.43,8.21,0,.14-.22,2.52,1.94,2.52,1.3,0,2.23-.22,3.53-.22,1.87,0,3.17.14,4.97.14,1.51,0,2.52-.29,2.52-2.09,0-2.23-.36-3.74-.36-5.98-.07-2.38.22-3.96.22-6.34,0-1.87-.07-3.17-.29-4.97-.07-.94-.29-1.58-.29-2.52,0-.29.14-.65.29-.65.29-.07,1.01,2.09,1.44,3.38.43,1.22.65,2.02,1.15,3.17.5,1.22,1.08,2.09,1.58,3.31.65,1.58.94,2.74,1.58,4.32.65,1.66,1.37,2.74,2.02,4.32.79,2.02,1.01,3.89,2.52,3.89,1.94,0,3.31-.22,5.33-.14ZM151.06,21.05c.5,0,.94-.07,1.51-.07.43,0,1.3,0,1.8.29.07.07.36.07.65.43,1.8,1.66.58,5.33.72,9.79.07,1.87.29,3.17.29,5.04,0,2.59-.36,4.46-.36,7.06,0,2.23.22,3.82.22,6.05,0,2.38-.36,3.96-.36,6.34s1.01,2.95,2.52,2.95c1.01,0,1.8-.14,2.81-.14,1.22,0,2.02,0,3.24.07.86.07,1.44.14,2.3.14.65,0,2.74-.14,2.74-2.45,0-.79-.14-1.3-.22-2.09-.14-1.3-.14-2.23-.14-3.53,0-1.51.07-3.02.07-4.54,0-2.66-.14-4.54-.14-7.2,0-2.95.14-4.97.14-7.92,0-2.45-.22-4.1-.22-6.55,0-2.88.65-3.82,2.74-3.82.72,0,1.22.07,1.94.07,2.16,0,2.23-1.94,2.23-2.52,0-.94-.07-1.58-.07-2.59,0-1.37.07-2.3.07-3.75,0-1.87,0-3.96-2.81-3.96-1.3,0-2.16.14-3.46.14-2.09,0-3.53-.14-5.54-.14h-.79c-2.45,0-4.9.22-7.34.22-1.66,0-2.81-.14-4.46-.14-1.8,0-2.52.65-2.52,2.45,0,1.22.14,2.09.14,3.31,0,1.8-.14,3.1-.14,4.9,0,.86.5,2.16,2.45,2.16ZM187.63,51.58c-.43-.79-.94-1.73-1.37-3.38-.22-.79-.43-2.23-.43-4.18,0-4.61.5-8.06,5.18-12.31,1.44-1.3,2.66-1.94,3.1-2.45.43-.5.65-.79.65-1.22,0-.72-.72-1.73-1.3-3.24-1.08-2.66-1.08-4.61-1.08-5.62.07-3.96,1.44-8.28,6.41-10.58,2.09-.94,3.74-1.08,4.54-1.08,1.15,0,8.07-.43,11.02,6.48.86,1.94.86,3.89.86,4.46,0,6.19-2.74,9.65-5.11,12.38-.5.5-.94.86-1.37,1.37-.22.36-.29.5-.29.79,0,.72,1.08,2.23,1.51,2.95.72,1.15,1.22,2.02,1.94,3.17.22-.22.43-.36.58-.65.72-1.01.72-2.59.72-2.74v-.94c0-1.08.79-1.87,1.87-1.87,1.37,0,2.3.22,3.67.22.79,0,1.3-.14,2.09-.14.65,0,1.8.29,1.8,1.87,0,1.08-.36,5.62-2.09,9.58-.94,2.16-2.59,4.39-2.66,4.97-.14.65.36,1.22,1.08,2.38.5.94,3.1,5.26,3.1,6.12,0,1.08-1.08,1.15-1.73,1.15-1.58,0-2.74-.22-4.39-.22s-2.66.22-4.18.22c-.94,0-1.22-.94-2.23-2.3-2.09,1.08-4.9,2.81-9.58,2.81-3.96,0-6.05-1.08-7.92-2.52-.94-.72-2.09-1.58-3.38-3.53-.43-.79-1.01-1.87-1.01-1.94ZM201.96,19.47c-.07,1.01.5,3.1,1.51,4.1.14-.14.29-.29.5-.36,1.94-1.66,2.02-3.31,2.02-4.03,0-1.66-1.3-2.23-2.02-2.23-1.37,0-1.94,1.58-2.02,2.52ZM197.57,43.38c0,1.08.5,4.61,4.54,4.61.79,0,1.51-.22,1.73-.29-.29-.79-.65-1.3-1.08-2.02-.94-1.66-1.51-2.81-2.3-4.54-.29-.65-.43-1.08-.79-1.73-.36.22-.65.43-.86.72-1.3,1.3-1.22,2.95-1.22,3.24ZM35.28,113.65c.07.29.29.72.29,1.37,0,1.58-1.8,1.51-1.94,1.51h-.29c-1.22,0-2.02-.14-3.24-.14-1.44,0-2.38,0-3.74.07-.79,0-1.37.14-2.16.14-2.3,0-2.52-1.8-3.24-3.46-.72-1.73-1.51-2.81-2.23-4.46-.5-1.15-.72-1.94-1.3-3.1-.58-1.15-1.01-2.16-1.73-2.16-1.08,0-.94,1.44-.94,1.8,0,1.44.07,2.45.07,3.82,0,1.08-.07,1.8-.07,2.88,0,1.01.14,1.73.14,2.81,0,1.58-.94,1.94-1.73,1.94-1.51,0-2.59-.22-4.18-.22-1.8,0-3.17.29-4.97.29-1.58,0-2.38-1.08-2.38-2.52,0-1.08.14-1.8.22-2.81.07-1.8.14-3.1.14-4.97-.07-3.6-.29-6.12-.29-9.79s.22-6.34.22-10.01c0-2.38-.14-4.03-.14-6.41,0-2.52.14-4.32.14-6.84,0-1.51-.22-2.59-.14-4.1,0-1.44.5-3.67,3.82-3.67,1.51,0,2.52.14,4.03.14,3.6.07,6.19-.22,9.86-.22,4.18,0,9.86.72,13.18,6.34.22.43.5,1.08.65,1.51.22.58.65,1.3,1.01,2.52.5,1.73.72,6.55.72,8.21,0,1.08.22,7.49-3.82,12.39-.43.58-.86.94-1.3,1.44-.36.43-.72.5-1.08.94-.07.07-.29.43-.29.79,0,1.01,2.74,5.76,3.24,6.84.43,1.01.72,1.73,1.22,2.74.79,1.66,1.58,2.74,2.23,4.39ZM21.31,82.76c0-1.87-.86-5.18-3.82-5.18h-.29c-.5.07-1.01.22-1.37.5-.79.65-1.01,1.58-1.01,1.73-.07.29-.29,6.05-.29,6.26,0,1.8,1.01,3.53,3.17,3.53,1.01,0,1.73-.36,2.16-.72,1.22-1.08,1.44-3.31,1.44-6.12ZM62.79,104.86c-1.08,0-1.87.22-3.02.22-1.3,0-2.16-.14-3.46-.29-2.66-.22-3.67.29-4.68-1.73-.14-.43-.14-1.8-.14-2.16v-.86c0-1.51-.29-3.89,3.67-3.89,2.23,0,3.74.29,5.98.29.94,0,3.02-.14,3.02-2.95,0-1.08-.07-1.8-.07-2.88,0-1.15.07-1.87.07-3.02,0-1.01.14-3.02-2.81-3.02-.79,0-1.44.07-2.3.07-1.01,0-1.73-.14-2.81-.14h-.14c-.79,0-1.37.14-2.16.14-1.66,0-2.52-1.3-2.52-3.74s.14-3.67,4.1-3.67c1.22,0,2.02.22,3.17.22.86,0,1.51-.07,2.38-.07h.79c3.6,0,2.81-3.46,2.81-5.4,0-1.22.22-2.45.22-3.67,0-.72-.07-2.45-2.3-2.45-.86,0-1.44.07-2.23.07h-1.44c-1.01,0-1.73.14-2.74.14-2.3,0-3.96-.22-6.26-.22-.86,0-1.8.07-2.66.07-1.87,0-3.24-.29-5.11-.29-3.24,0-3.74,1.22-3.74,5.4,0,2.02.14,3.46.14,5.54,0,2.95-.22,5.04-.14,7.99,0,2.16.14,4.25.14,6.41,0,2.38-.14,4.03-.14,6.41,0,1.22.14,2.09.14,3.31s-.22,2.16-.22,3.38c0,1.73.07,2.88.07,4.61,0,1.87-.22,3.24-.22,5.11,0,2.52,2.09,3.02,2.95,3.02.72,0,1.22-.07,1.94-.14h7.7c1.01,0,1.73-.07,2.74-.07,1.73,0,2.95.14,4.68.14h1.73c1.01,0,1.73.07,2.74.07,2.52,0,2.81-1.94,2.81-2.81,0-1.22-.07-2.09-.07-3.31s.14-2.02.14-3.17c-.07-2.3-2.02-2.66-2.74-2.66ZM100.66,93.7c1.3,1.94,2.16,4.54,2.16,8.86,0,2.52-.86,3.96-1.3,5.11-.22.65-.43,1.58-.72,2.09-.07.14-.36.79-.72,1.3-1.87,2.66-6.19,5.47-12.1,5.47h-.86c-3.17,0-5.33.07-8.5.07-1.15,0-1.94-.07-3.17-.07-1.37,0-2.3.14-3.67.14-2.95,0-2.81-2.74-2.81-3.31,0-1.73.22-2.88.22-4.61,0-2.74-.22-4.61-.22-7.27,0-1.87-.07-3.24-.07-5.11,0-1.73.22-3.53.29-5.33.07-3.17-.36-5.33-.29-8.57,0-2.23.36-3.82.36-6.05.07-2.38-.36-4.1-.36-6.48,0-4.1,1.94-4.18,4.1-4.18,1.01,0,2.02.07,3.02.07,1.66,0,2.81-.22,4.46-.14,1.22,0,2.02.14,3.31.14h2.66c1.01,0,1.8-.14,2.88-.14,1.51,0,5.33.65,6.84,1.58.79.5,2.02,1.87,2.02,1.94.58.58,1.08.94,1.73,2.23.43,1.01.65,2.23.86,3.24.14.43.65,1.8.65,3.24,0,1.15-.07,1.94-.07,3.1,0,1.94-1.37,4.82-3.24,6.55-.5.5-1.01.79-1.58,1.3,0,0-.43.22-.43.5,0,.43.72.58,1.3,1.01.86.72,1.87,1.22,3.24,3.31ZM81.36,78.51c0,2.09-.36,5.33,3.31,5.33,2.59,0,3.89-1.87,3.89-4.18,0-1.8-.79-4.1-4.54-4.03-.43,0-.86.07-1.3.22-1.58.72-1.37,2.59-1.37,2.66ZM89.07,100.69c0-3.89-2.74-4.97-4.46-4.97h-.5c-.5.07-.94.14-1.37.43-.72.36-.94.94-1.01,1.15-.07.22-.22,4.32-.22,4.54,0,1.51-.22,3.74,3.46,3.74,1.8,0,4.1-1.37,4.1-4.9ZM130.11,104.86c-1.08,0-1.87.22-3.02.22-1.3,0-2.16-.14-3.46-.29-2.66-.22-3.67.29-4.68-1.73-.14-.43-.14-1.8-.14-2.16v-.86c0-1.51-.29-3.89,3.67-3.89,2.23,0,3.74.29,5.98.29.94,0,3.02-.14,3.02-2.95,0-1.08-.07-1.8-.07-2.88,0-1.15.07-1.87.07-3.02,0-1.01.14-3.02-2.81-3.02-.79,0-1.44.07-2.3.07-1.01,0-1.73-.14-2.81-.14h-.14c-.79,0-1.37.14-2.16.14-1.66,0-2.52-1.3-2.52-3.74s.14-3.67,4.1-3.67c1.22,0,2.02.22,3.17.22.86,0,1.51-.07,2.38-.07h.79c3.6,0,2.81-3.46,2.81-5.4,0-1.22.22-2.45.22-3.67,0-.72-.07-2.45-2.3-2.45-.86,0-1.44.07-2.23.07h-1.44c-1.01,0-1.73.14-2.74.14-2.3,0-3.96-.22-6.26-.22-.86,0-1.8.07-2.66.07-1.87,0-3.24-.29-5.11-.29-3.24,0-3.74,1.22-3.74,5.4,0,2.02.14,3.46.14,5.54,0,2.95-.22,5.04-.14,7.99,0,2.16.14,4.25.14,6.41,0,2.38-.14,4.03-.14,6.41,0,1.22.14,2.09.14,3.31s-.22,2.16-.22,3.38c0,1.73.07,2.88.07,4.61,0,1.87-.22,3.24-.22,5.11,0,2.52,2.09,3.02,2.95,3.02.72,0,1.22-.07,1.94-.14h7.7c1.01,0,1.73-.07,2.74-.07,1.73,0,2.95.14,4.68.14h1.73c1.01,0,1.73.07,2.74.07,2.52,0,2.81-1.94,2.81-2.81,0-1.22-.07-2.09-.07-3.31s.14-2.02.14-3.17c-.07-2.3-2.02-2.66-2.74-2.66ZM154.95,65.26h-.5c-2.3,0-6.41.58-8.64,1.8-.29.14-4.9,3.24-5.18,3.53-3.1,2.59-4.32,6.26-4.61,6.99-.58,1.73-1.87,6.98-1.87,12.46,0,2.23.22,3.74.36,5.98.07,1.37.14,3.67.43,5.04.58,2.74,2.95,7.27,3.1,7.49.29.43,1.37,1.8,1.66,2.16.5.58,2.02,2.59,4.1,3.96,2.3,1.58,6.19,2.23,6.34,2.3.5.07,5.4.29,5.9.29.86,0,3.24,0,3.24-3.02,0-1.8-.14-3.1-.14-4.9,0-1.3.14-2.23.14-3.6,0-.86-.07-1.3-.36-1.73-.58-.72-1.37-.86-1.51-.86-.72,0-1.22.29-1.94.29-1.8,0-4.54-2.02-4.75-2.23-1.94-1.66-3.02-4.61-3.02-9-.07-5.18.79-9.29,3.1-11.09.43-.36,3.24-1.44,3.67-1.44.94-.07,1.58.36,2.52.36,2.45,0,2.38-2.45,2.38-2.88,0-1.94-.07-3.31-.07-5.33,0-1.44.14-2.45.14-3.89,0-2.95-2.74-2.66-4.46-2.66ZM181.22,65.26h-.5c-2.3,0-6.41.58-8.64,1.8-.29.14-4.9,3.24-5.18,3.53-3.1,2.59-4.32,6.26-4.61,6.99-.58,1.73-1.87,6.98-1.87,12.46,0,2.23.22,3.74.36,5.98.07,1.37.14,3.67.43,5.04.58,2.74,2.95,7.27,3.1,7.49.29.43,1.37,1.8,1.66,2.16.5.58,2.02,2.59,4.1,3.96,2.3,1.58,6.19,2.23,6.34,2.3.5.07,5.4.29,5.9.29.86,0,3.24,0,3.24-3.02,0-1.8-.14-3.1-.14-4.9,0-1.3.14-2.23.14-3.6,0-.86-.07-1.3-.36-1.73-.58-.72-1.37-.86-1.51-.86-.72,0-1.22.29-1.94.29-1.8,0-4.54-2.02-4.75-2.23-1.94-1.66-3.02-4.61-3.02-9-.07-5.18.79-9.29,3.1-11.09.43-.36,3.24-1.44,3.67-1.44.94-.07,1.58.36,2.52.36,2.45,0,2.38-2.45,2.38-2.88,0-1.94-.07-3.31-.07-5.33,0-1.44.14-2.45.14-3.89,0-2.95-2.74-2.66-4.46-2.66ZM222.7,113.87c0,.07-.22,2.88-2.38,2.88-1.73,0-2.95-.22-4.68-.22-1.44,0-2.45.14-3.89.14-2.59,0-2.23-1.94-2.38-2.66-.07-.65-.22-4.68-.86-5.33-.36-.36-.14-.14-.58-.43-.14-.07-2.88-.14-4.54-.14-2.74,0-2.52.72-2.81,2.3-.07.58-.22,4.68-.65,5.33-.5.65-.94.94-2.09.94-1.37,0-2.3-.07-3.67-.07-1.44,0-2.88.07-4.32.07-1.3,0-2.74-.14-2.74-2.09,0-.58.29-1.94.58-3.46.29-1.87.36-3.1.72-4.97.29-1.66.58-2.81.86-4.46.43-2.38.5-4.03.94-6.41.36-2.38.79-3.96,1.08-6.34.22-1.66.29-2.88.58-4.61.36-1.94.79-3.38,1.15-5.33.58-3.02.58-5.18,1.3-8.14.43-1.94,1.01-3.74,1.66-4.39.72-.58,1.58-.79,3.17-.79,2.45,0,4.18.29,6.62.29,1.8,0,3.67-.07,5.47-.07h.29c1.87,0,2.45.29,3.17,1.51.14.14.29.72.36.86,0,.07,1.3,6.7,1.3,6.77.36,2.3.5,3.96.86,6.26.5,2.81.86,4.75,1.44,7.56.43,2.23.86,3.89,1.15,6.12.43,2.95.43,5.04.86,7.99.72,4.39,2.02,9.86,2.02,10.87ZM207.22,93.27c0-3.82-.94-8.14-1.08-9.15-.14-1.15-.29-2.66-.43-2.88-.14-.5-.5-.79-.72-.79s-.5.36-.58.72c-.14.36-.58,2.66-.65,3.02-.22.86-.43,1.51-.58,2.38-.07.58-.94,6.34-.94,6.84,0,2.23,1.08,2.45,2.23,2.45.94,0,2.74,0,2.74-2.59Z"/>
  <path d="M76.08,111.17c-.9,1.36-1.65,2.83-2.6,4.16-.76-.85-1.41-1.82-2.15-2.68-.84-.97-2.15-2.19-3.52-1.51-1.06.53-1.87,1.84-2.57,2.75-.56.73-1.08,1.5-1.67,2.22-1.41-1.63-2.53-3.49-3.92-5.14-.37-.43-.98-.3-1.36,0-2.09,1.65-3.79,3.7-5.54,5.71-1.69-1.67-3.11-3.61-4.89-5.19-.39-.35-.97-.39-1.36,0-1.71,1.7-3.56,3.23-5.06,5.11-1.28-1.28-2.55-2.55-3.83-3.83-.39-.39-.96-.34-1.36,0-2.03,1.74-4.08,3.56-5.53,5.83-.67,1.05.99,2.01,1.66.97,1.18-1.85,2.84-3.38,4.5-4.81,1.33,1.33,2.66,2.66,3.98,3.98.46.46,1.16.31,1.51-.19,1.31-1.94,3.13-3.45,4.82-5.05,1.72,1.68,3.14,3.65,4.95,5.25.37.33,1,.41,1.36,0,1.73-1.95,3.37-4.01,5.34-5.73,1.36,1.74,2.51,3.64,4.06,5.22.36.37.99.37,1.36,0,1.59-1.63,2.61-3.79,4.33-5.29,0,0,.04-.03.08-.06.1.03.11.05.26.14.49.3.89.81,1.25,1.25.9,1.06,1.66,2.29,2.72,3.2.37.32,1.01.43,1.36,0,1.35-1.65,2.31-3.55,3.48-5.32.68-1.04-.98-2-1.66-.97"/>
  <g>
    <path d="M220.44,87.04c1.18.8,2.35,1.63,3.42,2.56.9.77,1.81,1.69,2.49,2.72,1.41-3.52,4.1-6.58,6-9.78,1.24-2.08,2.37-4.36,2.6-6.8.2-2.12-.11-4.5-1.21-6.36-.4-.68-.93-1.31-1.53-1.68-.59-.37-1.24-.58-1.81-.61-1.5-.08-2.86.46-4.16,1.45-2.96,2.27-4.24,6.37-3.23,10.1.2.75-.7,1.61-1.41,1.08-1.73-1.28-3.19-2.83-4.63-4.42-1.33-1.48-2.67-3.04-4.3-4.2-1.29-.92-3.03-2.15-4.69-2.1-.47.01-.79.12-1.04.4-.05.06-.21.31-.25.41-.07.22-.14.45-.15.62-.22,2.88,1.68,5.85,3.47,7.94,2.18,2.54,4.88,4.53,7.46,6.63.92.75,1.97,1.36,2.95,2.03M223.47,91.85c-1.37-1.35-2.95-2.44-4.54-3.51-1.69-1.14-3.28-2.35-4.87-3.63-1.8-1.45-3.61-2.93-5.14-4.68-2.07-2.37-3.99-5.34-4.28-8.55-.19-2.14.83-4.34,3.23-4.4,1.32-.03,2.62.48,3.76,1.1,1.46.81,2.8,1.76,4.01,2.91,1.79,1.71,3.34,3.7,5.13,5.42-.13-3.59,1.35-7.16,4.24-9.42,2.74-2.15,6.85-2.88,9.42-.03,1.56,1.74,2.28,4.15,2.47,6.44.23,2.88-.59,5.68-1.89,8.23-1.29,2.51-2.98,4.78-4.52,7.14-1.33,2.04-2.61,4.18-3.05,6.6,0,.19,0,.38-.02.58-.05.52-.4.96-.96.96-.48,0-1.01-.44-.96-.96.17-1.68-.87-3.09-2.02-4.22"/>
    <path d="M228.42,86.04s0,0,0,0c0,0,0,0,0,0,.03,0,.05,0,.08,0,.26,0,.48-.22.48-.48s-.22-.48-.48-.48-.49.05-.68.23c-.19.18-.18.5,0,.68.17.17.41.18.6.06"/>
    <path d="M228.5,84.24h.85c.26,0,.48-.22.48-.48s-.22-.48-.48-.48h-.85c-.26,0-.48.22-.48.48s.22.48.48.48"/>
    <path d="M228.92,82.45c.57-.01,1.13-.16,1.71-.17.62-.01.62-.97,0-.96-.57.01-1.13.16-1.71.17-.62.01-.62.97,0,.96"/>
    <path d="M229.65,80.3c.87-.25,1.76-.42,2.65-.6.61-.12.35-1.05-.26-.93-.89.18-1.78.35-2.65.6-.59.17-.34,1.1.26.93"/>
    <path d="M232.64,76.38c-.88.26-1.77.47-2.59.9-.55.29-.06,1.12.49.83.74-.39,1.56-.57,2.36-.81.59-.17.34-1.1-.26-.93"/>
    <path d="M232.9,73.9c-1,.3-1.98.66-2.85,1.24-.51.35-.03,1.18.49.83.8-.54,1.7-.87,2.62-1.15.59-.18.34-1.11-.26-.93"/>
    <path d="M230.33,73.38c.82-.33,1.63-.74,2.52-.84.61-.07.61-1.03,0-.96-.99.11-1.86.5-2.78.87-.57.23-.32,1.16.26.93"/>
    <path d="M230.45,71.11c.58-.4,1.24-.62,1.93-.72.61-.08.35-1.01-.26-.93-.77.11-1.52.38-2.16.82-.51.35-.03,1.18.49.83"/>
  </g>
  <path d="M89.94,10.95c1-.37,1.91-.88,2.6-1.72.37-.45.32-1.04-.18-1.37-1.71-1.15-3.94-1.32-5.98-1.46-.11-1.85-.13-3.7-.26-5.54-.06-.89-1.12-1.17-1.63-.44-1.1,1.58-2.23,3.44-2.61,5.39-2.03-.19-4.04-.47-6.09-.24-.86.1-1.19,1.11-.44,1.63,1.28.89,2.61,1.72,3.9,2.59-.91,1.28-2.14,2.31-2.97,3.66-.35.56.1,1.32.75,1.31,1.87-.02,3.7-.57,5.46-1.19.94,1.83,2.12,3.52,2.94,5.41.26.61,1.22.53,1.51,0,.63-1.15.67-2.39.59-3.67-.06-1.1-.23-2.35.41-3.33.4-.61,1.37-.79,2-1.03"/>
</svg>